<svg xmlns="http://www.w3.org/2000/svg" width="94" height="94" viewBox="0 0 94 94">
  <g id="Logo" transform="translate(-141 -121)">
    <g id="Rectangle_503" data-name="Rectangle 503" transform="translate(141 121)" fill="#003f9a" stroke="#fff" stroke-width="4">
      <rect width="94" height="94" rx="13" stroke="none"/>
      <rect x="2" y="2" width="90" height="90" rx="11" fill="none"/>
    </g>
    <path id="Path_27552" data-name="Path 27552" d="M445.48,317.371s-3.88,1.966-4.1,1.979c.054.085.3,1,.535,1.917a2.108,2.108,0,0,1-1.355,2.526l-.84.288a2.659,2.659,0,0,1-3.4-1.731l-.611-1.965a6.335,6.335,0,0,0,3.949-1.04c2.075-1.631.257-3.819.257-3.819.428-2.661-.941-3.347-.941-3.347l.085-1.073a8.377,8.377,0,0,0,3.016,1.438l.278-.622a6.741,6.741,0,0,1-4.664-4.077l-2.1.3.043,1.416c-.171,1.5-2.011,1.288-2.011,1.288l-1.277-3.5a.736.736,0,0,1,.221-.818l3.336-2.773a1.6,1.6,0,0,1,1.661-.234c2.188.961,7.586,3.337,7.483,3.337-.081,0,7.325-1.108,12.742-1.916v-6.383a4.838,4.838,0,0,0-1.577-3.576l-15.269-13.919a4.377,4.377,0,0,0-5.9,0l-15.269,13.919a4.838,4.838,0,0,0-1.577,3.576v22.8a4.825,4.825,0,0,0,4.818,4.832h29.959a4.825,4.825,0,0,0,4.818-4.832v-4.519Zm-7.456-33.428a2.026,2.026,0,1,1-2.02,2.026A2.023,2.023,0,0,1,438.024,283.943Zm-11.542,12.742.6-3.648,1.155-.258,1.366,4.034,3.982-.9-1.112-4.249,1.134-.429,2.087,1.8.886,3.924-1.155,2.692.576,2.36-4.555,3.648-1.241-4.249-2.567-2.017Zm4.878,9.914.813,2.618-2.567.343S429.455,307.249,431.36,306.6Zm-.653,6.17-.5-1.578a.578.578,0,0,1,.461-.567l1.785-.367.749,1.577s2.9-.161,3.081-1.33a.6.6,0,0,1,.6-.6h.471a.728.728,0,0,1,.727.73v.437a.939.939,0,0,1-.746.92l-5.862,1.225A.658.658,0,0,1,430.708,312.769Zm1.2,2.776a1.092,1.092,0,0,1,.766-1.465l4.776-1.11a1.133,1.133,0,0,1,1.333.754,1.229,1.229,0,0,1-.974,1.6l-4.932.78A.892.892,0,0,1,431.91,315.545Zm2.531,3.542s-1.369.046-1.669-1.888l5.538-.784a1.079,1.079,0,0,1,.59,2.055A8.884,8.884,0,0,1,434.441,319.088Z" transform="translate(-250.497 -135.062)" fill="#fff"/>
  </g>
</svg>
