<svg xmlns="http://www.w3.org/2000/svg" width="1093.677" height="636.204" viewBox="0 0 1093.677 636.204">
  <g id="Vector_Group" transform="translate(-160 -808.64)">
    <g id="Vector4" transform="translate(915.575 808.64)" opacity="0.05">
      <path id="Path_28263" data-name="Path 28263" d="M298.279,18c-6-2.719-16.657-3.928-35.495-5.328-6.159-.458-11.73-.691-16.557-.691-9.143,0-15.8.821-19.787,2.439A9.593,9.593,0,0,0,223.23,16.4c-1.848-.113-3.576-.17-5.153-.17-12.556,0-15.706,3.7-16.5,8.058L176.5,22.422a1.58,1.58,0,1,0-.235,3.151l25.058,1.863a7.8,7.8,0,0,0,3.181,6.341c3.093,2.428,8.543,3.92,17.09,4.663a10.493,10.493,0,0,0,3.586,2.82c4.3,2.281,11.682,4.1,21.958,5.423a26.836,26.836,0,0,1,1.642,9.1,2.528,2.528,0,0,0,2.528,2.528h3.48c.887,1.88,2.525,6.51,2.525,15.064,0,6.535-.911,9.092-1.675,10.086-.557.723-1.261.922-3.276.922H241.8a8.774,8.774,0,0,0-8.765,8.764v13.483a8.774,8.774,0,0,0,8.765,8.764h39.83a8.774,8.774,0,0,0,8.765-8.764V93.143a8.734,8.734,0,0,0-5.975-8.307V70.843c0-4.721-1.805-9.118-3.4-13-1.3-3.171-2.531-6.165-2.531-8.7,0-.025,0-.05,0-.076,1.952.067,3.7.1,5.305.1,8.806,0,13.7-.995,16.907-3.432,3.513-2.673,4.5-6.783,4.9-12.133C306.043,27.59,305.845,21.435,298.279,18ZM235.558,93.143a6.236,6.236,0,0,1,6.237-6.236h6.378l-.053.013h23.02l-30.6.83L283.082,88.9a6.176,6.176,0,0,1,.907,2.665c.064.508.116,1.016.161,1.524l-46.8,1.228,46.968,1.232c.094,2.128.076,4.255.029,6.4a28.73,28.73,0,0,1-1.3,8.828L240.54,111.94l33.986.922H241.8a6.236,6.236,0,0,1-6.237-6.236ZM250.4,56.349a2.539,2.539,0,0,1-.308-1.145c-.018-.363-.035-.731-.053-1.1a15.016,15.016,0,0,0-.208-2.112,14.938,14.938,0,0,0-.36-1.826,14.015,14.015,0,0,0-.486-1.773,14.19,14.19,0,0,1,.825,1.667,15.773,15.773,0,0,1,.56,1.831,16.025,16.025,0,0,1,.3,2.182,5.06,5.06,0,0,0,.2,2,1.715,1.715,0,0,0,1.394.771c.528.083,1,.091,1.326.148a3,3,0,0,1,.5.111,3.065,3.065,0,0,0-.5-.014c-.322.006-.77.086-1.344.109a2.993,2.993,0,0,1-.94-.158A1.7,1.7,0,0,1,250.4,56.349ZM203.9,26.044c.226-3.044.7-7.288,14.173-7.288,1.876,0,4,.083,6.42.262,0,0,.475-4.506,21.731-4.506,2.772,0,5.9.078,9.426.251l.113,0c1.349.047,2.707.128,4.079.205,2.741.143,5.549.341,8.327.544,2.785.224,5.57.461,8.312.73s5.436.59,8.041.958,5.117.819,7.482,1.387a26.716,26.716,0,0,1,6.489,2.33,11.163,11.163,0,0,1,2.513,1.872,7.493,7.493,0,0,1,1.572,2.362,9.262,9.262,0,0,1,.424,1.21,11.267,11.267,0,0,1,.222,1.16,10.71,10.71,0,0,1,.1,1.073c.026.341.032.666.028.975a25.381,25.381,0,0,1-.169,2.844c-.077.651-.117,1-.117,1s.006-.349.018-1,0-1.614-.1-2.822c-.02-.3-.053-.618-.106-.947a9.748,9.748,0,0,0-.185-1.022c-.06-.356-.194-.706-.292-1.078a8.7,8.7,0,0,0-.466-1.088,8.211,8.211,0,0,0-3.936-3.593,23.947,23.947,0,0,0-4.24-1.453,9.3,9.3,0,0,1,2.386,2.684c1.638,2.809,1.539,6.268,1.3,9.511a22.865,22.865,0,0,1-.616,4.241c-.045.062-.085.122-.136.186a6.525,6.525,0,0,1-1.682,1.473,10.59,10.59,0,0,1-2.916,1.188,34.705,34.705,0,0,1-4,.72c-1.46.192-3.008.344-4.619.454-3.222.225-6.689.248-10.165.183-6.958-.186-13.945-.38-19.137-.884-2.6-.243-4.756-.563-6.257-.825-.752-.131-1.341-.243-1.742-.327l-.614-.124.607.158c.4.107.977.252,1.721.427,1.488.347,3.629.789,6.225,1.181,5.2.8,12.151,1.389,19.123,1.971,3.492.262,7.007.44,10.322.4,1.657-.019,3.263-.086,4.787-.2a38.872,38.872,0,0,0,4.126-.5c-2.958,1.326-7.341,1.076-10.39,1.088-13.339.05-26.844-.01-39.66-3.627l-.025-23.157-2.342,20.992a31.25,31.25,0,0,1-8.249-.361,20.662,20.662,0,0,1-7.541-2.889l.083-14.5-2.38,13.364A56.162,56.162,0,0,1,208.732,31.7a11.078,11.078,0,0,1-3.225-1.183l.047-8.2-1.249,7.01c-.108-.194-.2-.391-.295-.59A8.75,8.75,0,0,1,203.9,26.044Zm52.355,29.735c-1.075-2.043-1.785-6.05-2.413-8.422a101.846,101.846,0,0,0,15.741,1.256c-1.4.1-2.967.195-4.538.246-1.21.037-2.42.06-3.555.053s-2.2-.035-3.1-.076-1.667-.093-2.195-.147l-.833-.073.819.167c.522.115,1.27.249,2.172.4s1.961.3,3.1.434,2.353.256,3.571.359c2.178.181,4.36.282,6.112.336a22.691,22.691,0,0,0,.524,3.787c.792,4.287,2.1,6.527,3.892,11.965l-7.1.45c-.51-1.61-1.129-3.152-1.66-4.6a41.323,41.323,0,0,1-1.41-4.139,16.49,16.49,0,0,1-.55-3.038c-.048-.375-.043-.671-.053-.875s-.009-.313-.009-.313-.02.107-.054.308a8.81,8.81,0,0,0-.129.878,12.691,12.691,0,0,0,.1,3.182,27.77,27.77,0,0,0,1.072,4.358c.46,1.4.982,2.85,1.407,4.32l-6.761.429,7.016.444a32.845,32.845,0,0,1,1,4.466,43.413,43.413,0,0,1,.472,4.344c.05,1.282.1,2.362.075,3.116,0,.758-.012,1.193-.012,1.193s.1-.422.257-1.169a24.125,24.125,0,0,0,.392-3.139,27.9,27.9,0,0,0-.1-4.489,34.246,34.246,0,0,0-.772-4.239l7.443.472c.128.419.258.85.39,1.305a36.04,36.04,0,0,1,1.207,13.495l-18.312,1.161,10.6.672H257.884c1.213-1.848,1.957-5.2,1.957-11.285C259.84,60.414,256.259,55.779,256.259,55.779ZM178.537,25.2a5.842,5.842,0,0,1-.572-.23,6.48,6.48,0,0,1-.586-.4,6.267,6.267,0,0,1-.475-.524,5.7,5.7,0,0,1-.309-.534,4.988,4.988,0,0,1-.168-.583,4.835,4.835,0,0,0,.455.374,5.253,5.253,0,0,0,.427.375,5.947,5.947,0,0,0,.483.415,5.84,5.84,0,0,0,.479.418,5.264,5.264,0,0,0,.431.371,4.864,4.864,0,0,0,.434.4A4.946,4.946,0,0,1,178.537,25.2Zm4.252.344a5.308,5.308,0,0,1-.572-.23,6.411,6.411,0,0,1-.587-.4,6.421,6.421,0,0,1-.474-.524,5.829,5.829,0,0,1-.309-.535,5.016,5.016,0,0,1-.168-.582,4.756,4.756,0,0,0,.455.373,5.1,5.1,0,0,0,.428.375,5.893,5.893,0,0,0,.482.415,6.034,6.034,0,0,0,.48.419,5.1,5.1,0,0,0,.431.37,4.8,4.8,0,0,0,.434.4A5.074,5.074,0,0,1,182.788,25.548Zm4.252.345a5.752,5.752,0,0,1-.573-.23,6.4,6.4,0,0,1-.586-.4,6.3,6.3,0,0,1-.475-.525,5.46,5.46,0,0,1-.308-.534,4.775,4.775,0,0,1-.168-.582,4.809,4.809,0,0,0,.454.373,5.419,5.419,0,0,0,.428.375,6.113,6.113,0,0,0,.483.415,6.2,6.2,0,0,0,.479.418,5.112,5.112,0,0,0,.432.371,4.862,4.862,0,0,0,.434.4A4.918,4.918,0,0,1,187.04,25.893Zm4.252.344a5.5,5.5,0,0,1-.573-.229,6.679,6.679,0,0,1-.586-.4,6.43,6.43,0,0,1-.475-.525,5.809,5.809,0,0,1-.309-.534,4.9,4.9,0,0,1-.167-.583,4.733,4.733,0,0,0,.454.374,5.265,5.265,0,0,0,.428.374,5.75,5.75,0,0,0,.483.415,5.673,5.673,0,0,0,.479.419,5.239,5.239,0,0,0,.431.37,4.963,4.963,0,0,0,.434.4A4.829,4.829,0,0,1,191.291,26.236Zm4.251.345a5.966,5.966,0,0,1-.572-.229,6.481,6.481,0,0,1-.586-.4,6.115,6.115,0,0,1-.475-.525,5.689,5.689,0,0,1-.309-.534,4.993,4.993,0,0,1-.168-.583,4.665,4.665,0,0,0,.455.374,5.088,5.088,0,0,0,.428.375,5.9,5.9,0,0,0,.482.415,6.045,6.045,0,0,0,.48.419,5.268,5.268,0,0,0,.431.37,4.867,4.867,0,0,0,.434.4A4.919,4.919,0,0,1,195.542,26.581Zm4.252.345a5.752,5.752,0,0,1-.573-.23,6.469,6.469,0,0,1-.585-.4,6.282,6.282,0,0,1-.476-.524,5.463,5.463,0,0,1-.308-.534,4.758,4.758,0,0,1-.168-.583,4.9,4.9,0,0,0,.454.374,5.424,5.424,0,0,0,.428.375,5.767,5.767,0,0,0,.484.414,5.824,5.824,0,0,0,.478.419,5.3,5.3,0,0,0,.432.371,4.865,4.865,0,0,0,.434.4A4.919,4.919,0,0,1,199.793,26.926Z" transform="translate(-174.8 -11.983)" fill="#3f3f3f"/>
      <path id="Path_28264" data-name="Path 28264" d="M215.38,31.434c-.471-.053-1.014-.163-1.6-.234s-1.206-.178-1.825-.291c-.621-.089-1.242-.193-1.822-.3s-1.128-.187-1.591-.286l-1.134-.2-.434-.069.4.186c.258.105.623.276,1.078.426s.983.337,1.566.479,1.208.273,1.837.392c.634.086,1.27.159,1.866.212s1.159.042,1.637.044.879-.044,1.158-.062l.437-.049-.434-.074Z" transform="translate(-175.354 -12.294)" fill="#3f3f3f"/>
      <path id="Path_28265" data-name="Path 28265" d="M217.171,29.958c-.4-.084-.866-.21-1.371-.293l-1.581-.267-1.592-.186c-.508-.06-.99-.069-1.4-.1s-.756-.017-1-.025l-.38.007.364.113c.232.06.561.169.962.256s.866.208,1.371.293l1.581.268,1.593.185c.508.062.989.07,1.4.1s.756.017,1,.025l.38-.008-.363-.114C217.9,30.153,217.572,30.043,217.171,29.958Z" transform="translate(-175.404 -12.277)" fill="#3f3f3f"/>
      <path id="Path_28266" data-name="Path 28266" d="M215.127,28.015a5.33,5.33,0,0,0-.532.058l-.2.039.19.083c.123.038.295.12.507.172s.456.135.723.176l.836.135.846.05c.27.019.528-.013.745-.015s.4-.048.533-.059l.2-.04-.191-.083c-.123-.038-.295-.121-.506-.172s-.457-.137-.724-.176l-.836-.134L215.871,28C215.6,27.981,215.344,28.012,215.127,28.015Z" transform="translate(-175.482 -12.258)" fill="#3f3f3f"/>
      <path id="Path_28267" data-name="Path 28267" d="M237.463,35.893c-.585-.022-1.263-.111-1.987-.168s-1.494-.169-2.259-.3c-.768-.109-1.531-.246-2.243-.4s-1.381-.286-1.945-.443-1.046-.255-1.375-.353l-.525-.134.482.249c.313.145.755.371,1.311.576a20.078,20.078,0,0,0,1.924.637c.719.185,1.494.353,2.274.492.785.1,1.574.18,2.315.222a19.654,19.654,0,0,0,2.028-.024c.592-.026,1.081-.107,1.423-.15l.536-.091-.542-.031C238.536,35.967,238.047,35.924,237.463,35.893Z" transform="translate(-175.701 -12.363)" fill="#3f3f3f"/>
      <path id="Path_28268" data-name="Path 28268" d="M238.625,33.734c-.486-.01-1.053-.076-1.657-.1s-1.248-.094-1.888-.172c-.642-.056-1.284-.132-1.883-.22s-1.165-.15-1.642-.241-.887-.131-1.169-.184-.448-.065-.448-.065l.415.183c.268.1.648.27,1.12.41s1.024.314,1.629.435,1.257.223,1.912.309c.658.052,1.317.084,1.934.093a16.708,16.708,0,0,0,1.685-.088c.491-.038.9-.125,1.18-.171l.443-.092s-.164-.012-.452-.029S239.111,33.751,238.625,33.734Z" transform="translate(-175.749 -12.34)" fill="#3f3f3f"/>
      <path id="Path_28269" data-name="Path 28269" d="M237.357,31.59l-1.017.03c-.324,0-.63.052-.89.067s-.481.068-.635.085l-.243.048.236.075c.151.034.367.107.626.146s.565.106.893.126l1.03.054,1.029-.051c.328-.019.633-.087.893-.125a6.355,6.355,0,0,0,.627-.146l.236-.075-.243-.048c-.153-.017-.373-.069-.634-.086s-.567-.066-.891-.068Z" transform="translate(-175.829 -12.32)" fill="#3f3f3f"/>
      <path id="Path_28270" data-name="Path 28270" d="M288.223,28.825c-2.255-.229-4.884-.543-7.706-.794l-8.843-.8-8.856-.666c-2.826-.214-5.469-.339-7.732-.485s-4.155-.2-5.476-.266c-1.323-.045-2.08-.073-2.08-.073l2.064.27c1.314.15,3.188.406,5.445.639s4.883.542,7.706.8l8.844.8,8.854.666c2.826.217,5.47.34,7.734.485s4.153.2,5.475.265l2.079.074-2.062-.271C292.353,29.314,290.478,29.058,288.223,28.825Z" transform="translate(-176.052 -12.22)" fill="#3f3f3f"/>
      <path id="Path_28271" data-name="Path 28271" d="M286.2,32.943c-1.422-.169-3.076-.413-4.857-.589l-5.579-.564-5.59-.43c-1.784-.14-3.456-.195-4.885-.279s-2.627-.087-3.461-.12l-1.316-.019,1.3.215c.828.115,2.008.319,3.429.493s3.077.411,4.859.589l5.577.565,5.591.431c1.783.142,3.456.194,4.886.279s2.627.086,3.461.12l1.316.018-1.3-.215C288.8,33.322,287.619,33.115,286.2,32.943Z" transform="translate(-176.275 -12.309)" fill="#3f3f3f"/>
      <path id="Path_28272" data-name="Path 28272" d="M260.192,17.823c-1.43-.071-2.627-.069-3.462-.1l-1.316-.009,1.3.205c.829.11,2.01.307,3.433.47s3.08.39,4.862.556l5.581.526,5.594.392c1.785.13,3.456.17,4.886.246s2.628.069,3.463.1l1.316.008-1.3-.206c-.828-.109-2.009-.308-3.433-.47s-3.079-.392-4.862-.555l-5.582-.526-5.593-.391C263.3,17.941,261.622,17.9,260.192,17.823Z" transform="translate(-176.187 -12.082)" fill="#3f3f3f"/>
      <path id="Path_28273" data-name="Path 28273" d="M259.4,100.568c1.07.037,2.318.123,3.656.141l4.193.061,4.192-.061c1.338-.016,2.587-.1,3.657-.14s1.963-.133,2.586-.17l.982-.089-.982-.089c-.623-.037-1.516-.128-2.586-.169s-2.319-.125-3.657-.14l-4.192-.061-4.193.061c-1.338.018-2.586.1-3.656.141s-1.963.132-2.587.169l-.982.088.982.089C257.441,100.437,258.333,100.526,259.4,100.568Z" transform="translate(-176.195 -13.495)" fill="#3f3f3f"/>
      <path id="Path_28274" data-name="Path 28274" d="M259.4,102.949c1.07.038,2.318.123,3.656.141l4.193.061c1.426-.021,2.853-.04,4.192-.061s2.587-.1,3.657-.14,1.963-.132,2.586-.169l.982-.089-.982-.089c-.623-.037-1.516-.128-2.586-.17s-2.319-.124-3.657-.14l-4.192-.061-4.193.062c-1.338.018-2.586.1-3.656.141s-1.963.132-2.587.168l-.982.089.982.089C257.441,102.818,258.333,102.908,259.4,102.949Z" transform="translate(-176.195 -13.536)" fill="#3f3f3f"/>
      <path id="Path_28275" data-name="Path 28275" d="M259.4,105.331c1.07.037,2.318.123,3.656.14l4.193.062,4.192-.061c1.338-.015,2.587-.1,3.657-.14s1.963-.133,2.586-.17l.982-.088-.982-.09c-.623-.036-1.516-.128-2.586-.169s-2.319-.125-3.657-.14l-4.192-.061-4.193.061c-1.338.018-2.586.1-3.656.141s-1.963.132-2.587.169l-.982.089.982.088C257.441,105.2,258.333,105.289,259.4,105.331Z" transform="translate(-176.195 -13.577)" fill="#3f3f3f"/>
      <path id="Path_28276" data-name="Path 28276" d="M259.4,107.712c1.07.038,2.318.123,3.656.141l4.193.061,4.192-.06c1.338-.016,2.587-.1,3.657-.141s1.963-.132,2.586-.169l.982-.089-.982-.089c-.623-.037-1.516-.129-2.586-.169s-2.319-.125-3.657-.141l-4.192-.06-4.193.061c-1.338.018-2.586.1-3.656.141s-1.963.131-2.587.169l-.982.088.982.089C257.441,107.581,258.333,107.671,259.4,107.712Z" transform="translate(-176.195 -13.618)" fill="#3f3f3f"/>
      <path id="Path_28277" data-name="Path 28277" d="M259.4,110.094c1.07.037,2.318.122,3.656.14s2.766.041,4.193.061l4.192-.059c1.338-.016,2.587-.1,3.657-.141s1.963-.132,2.586-.169l.982-.089-.982-.09c-.623-.036-1.516-.128-2.586-.169s-2.319-.125-3.657-.14l-4.192-.061-4.193.061c-1.338.018-2.586.1-3.656.141s-1.963.132-2.587.169l-.982.089.982.088C257.441,109.963,258.333,110.052,259.4,110.094Z" transform="translate(-176.195 -13.659)" fill="#3f3f3f"/>
      <path id="Path_28278" data-name="Path 28278" d="M241.079,16.534l-.114.507c-.057.324-.168.784-.248,1.342s-.2,1.2-.271,1.9l-.231,2.187c-.045.747-.091,1.495-.134,2.2s-.029,1.359-.046,1.921.021,1.034.024,1.363.029.519.029.519.042-.184.115-.507c.057-.324.169-.784.248-1.341s.2-1.2.271-1.9l.231-2.188c.045-.747.09-1.495.132-2.2s.031-1.359.046-1.92-.02-1.035-.023-1.363Z" transform="translate(-175.923 -12.061)" fill="#3f3f3f"/>
      <path id="Path_28279" data-name="Path 28279" d="M221.365,31.6c.058-.317.168-.769.252-1.315s.208-1.18.29-1.865.174-1.415.263-2.146c.061-.733.123-1.467.181-2.154s.066-1.334.1-1.886.014-1.016.022-1.339-.009-.509-.009-.509-.041.18-.113.5-.167.769-.253,1.315-.206,1.181-.29,1.865-.173,1.416-.263,2.146c-.062.733-.123,1.467-.181,2.154s-.067,1.335-.1,1.886-.014,1.016-.022,1.339.009.51.009.51Z" transform="translate(-175.599 -12.128)" fill="#3f3f3f"/>
    </g>
    <g id="Vector2" transform="translate(325.167 904.189) rotate(90)" opacity="0.1">
      <g id="Group_21449" data-name="Group 21449">
        <g id="Group_21448" data-name="Group 21448">
          <g id="Group_21447" data-name="Group 21447">
            <g id="Group_21446" data-name="Group 21446">
              <g id="Group_21445" data-name="Group 21445">
                <g id="Group_21444" data-name="Group 21444">
                  <path id="Path_28241" data-name="Path 28241" d="M5.154,27.279C7.647,29.565,10,31.725,9.86,39.594c-.141,7.789-.26,54.427-.216,66.275.031,8.419-.408,12.626-3.086,15.294s-6.673,8.222-3.535,15.623c3.03,7.154,6.195,10.223,10.581,10.269l1.275.013-3.312-11.316c.045-.581.5-3.441,5.086-4.462a10.677,10.677,0,0,1,8.406,1.259l3.667,11.7,1.032-.638c.168-.1,4.092-2.634,4.194-12.659.053-5.144-2.515-7.655-5-10.078-2.6-2.538-5.056-4.936-5-10.5.09-8.964.229-24.838.363-40.19.115-13.165.221-25.5.282-31.482.005-.517.008-1.024.01-1.526.013-5.043.027-9.023,3.767-14.269a13.92,13.92,0,0,0,1.4-12.159C28.132,5.885,24.2,2.257,18.683.534L16.97,0l3.391,10.971a6.643,6.643,0,0,1-4.1,5.633,10.481,10.481,0,0,1-7.529-.266l-4-10.479L3.771,6.4c-.214.12-5.219,3.086-3.356,13.011C1.212,23.665,3.215,25.5,5.154,27.279ZM23.91,117.507a11.039,11.039,0,0,1-1.018-2.8,27.019,27.019,0,0,1-.628-4.591c-.1-1.793-.087-3.8-.1-5.994s-.017-4.566-.028-7.078,0-5.161.005-7.9.025-5.57.036-8.449.046-5.8.07-8.721.073-5.844.108-8.722.091-5.7.134-8.447c.1-5.478.208-10.592.326-14.974.053-2.193.117-4.2.175-5.983.034-.89.037-1.719.109-2.5a12.219,12.219,0,0,1,1.513-4.863c.33-.6.529-.907.529-.907s-.181.318-.478.936a13.582,13.582,0,0,0-.968,2.783,12.633,12.633,0,0,0-.285,2.07c-.036.758,0,1.6,0,2.487.022,1.782.046,3.79.054,5.982.029,4.385.039,9.5.022,14.98-.012,2.74-.024,5.571-.038,8.449s-.045,5.8-.07,8.721-.073,5.844-.108,8.721-.091,5.708-.136,8.449-.107,5.386-.156,7.9-.118,4.888-.169,7.077-.146,4.2-.125,5.972a26.736,26.736,0,0,0,.423,4.561,11.779,11.779,0,0,0,.856,2.818,3.6,3.6,0,0,0,.547.888A3.546,3.546,0,0,1,23.91,117.507ZM3.837,8.824,7.228,17.7l.315.166a12.278,12.278,0,0,0,9.377.5c5.06-1.9,5.33-7.247,5.339-7.475l.006-.159-2.4-7.759a13.97,13.97,0,0,1,8.112,8.379,13.434,13.434,0,0,1,.462,1.795c.024.186.045.4.067.643a12.657,12.657,0,0,1,.018,1.728,10.332,10.332,0,0,1-.356,2.15,8.727,8.727,0,0,1-.994,2.289A9.521,9.521,0,0,1,25.4,22.055a11.606,11.606,0,0,1-1.149.9c-.211.136-.42.274-.628.412s-.443.25-.667.379A21.32,21.32,0,0,1,20.076,25a29.951,29.951,0,0,1-3.063.882,15.548,15.548,0,0,1-2.969.417,9.981,9.981,0,0,1-2.718-.263,10.534,10.534,0,0,1-2.344-.883,17.364,17.364,0,0,1-1.894-1.134c-.277-.19-.527-.378-.76-.556s-.452-.337-.643-.491L4.479,22l.211.349c.141.227.349.559.644.962a14.112,14.112,0,0,0,1.142,1.406,12.669,12.669,0,0,0,1.762,1.619,10.211,10.211,0,0,0,2.551,1.409,10.343,10.343,0,0,0,3.244.64,14.271,14.271,0,0,0,2.66-.172c5.529,59.045,1.037,84.078-.567,90.643l-.2.022a8.656,8.656,0,0,0-.916.156,7.958,7.958,0,0,0-1.722.609,10.564,10.564,0,0,0-2.773,1.984,15.506,15.506,0,0,0-1.954,2.363,20.107,20.107,0,0,0-1.343,2.325,20.628,20.628,0,0,0-.887,2.068c-.238.62-.409,1.177-.538,1.633a12.9,12.9,0,0,0-.342,1.46s.275-.471.769-1.27c.25-.4.559-.877.912-1.419s.776-1.135,1.243-1.768.99-1.3,1.574-1.96a17.762,17.762,0,0,1,1.942-1.913,9.894,9.894,0,0,1,2.328-1.486,7.018,7.018,0,0,1,1.285-.425,6.318,6.318,0,0,1,.664-.105l.785-.084a25.1,25.1,0,0,1,3.029-.127,13.838,13.838,0,0,1,2.834.351,12.278,12.278,0,0,1,2.51.91,17.4,17.4,0,0,1,2.117,1.275c.636.449,1.21.894,1.706,1.307s.928.784,1.28,1.1c.275.244.5.449.681.6a9.471,9.471,0,0,1,.952,4.471c-.058,5.742-1.426,8.692-2.381,10.054l-3-9.567-.215-.179c-.158-.132-3.953-3.194-10.227-1.8-5.261,1.172-6.6,4.726-6.57,6.442l0,.127,2.64,9.015c-2.2-.462-4.745-2.349-7.554-8.98-2.569-6.062.285-10.715,3.131-13.549,3.431-3.418,3.669-8.809,3.64-16.642-.045-11.842.075-58.449.216-66.229h0C11.906,30.908,9,28.24,6.431,25.886c-1.789-1.639-3.479-3.187-4.16-6.819C1.143,13.058,2.745,10.084,3.837,8.824Z" fill="#3f3f3f"/>
                </g>
              </g>
            </g>
          </g>
        </g>
      </g>
      <g id="Group_21455" data-name="Group 21455" transform="translate(21.197 4.636)">
        <g id="Group_21454" data-name="Group 21454">
          <g id="Group_21453" data-name="Group 21453">
            <g id="Group_21452" data-name="Group 21452">
              <g id="Group_21451" data-name="Group 21451">
                <g id="Group_21450" data-name="Group 21450">
                  <path id="Path_28242" data-name="Path 28242" d="M2.2,2.521c.137.167.274.342.416.519s.272.372.421.558.281.388.413.6c.265.412.529.839.764,1.289a13.228,13.228,0,0,1,.623,1.4,14.747,14.747,0,0,1,.438,1.483c.051.253.113.5.155.753s.082.5.119.742c.068.487.115.966.132,1.418a12.006,12.006,0,0,1,.009,1.286,11.368,11.368,0,0,1-.371,2.661,4.805,4.805,0,0,0,.356-.671,9.182,9.182,0,0,0,.6-1.922,12.2,12.2,0,0,0,.184-1.341,14.392,14.392,0,0,0,.018-1.516A14.409,14.409,0,0,0,6.3,8.165a9.8,9.8,0,0,0-.408-1.648A9.448,9.448,0,0,0,5.2,4.952a10.275,10.275,0,0,0-.911-1.367c-.161-.21-.334-.4-.495-.6s-.341-.366-.511-.539-.342-.325-.5-.48-.338-.286-.495-.423c-.324-.261-.624-.495-.9-.684S.867.5.656.381C.244.131,0,0,0,0S.175.217.5.569c.159.176.351.392.572.64s.463.526.727.832C1.929,2.195,2.06,2.36,2.2,2.521Z" fill="#3f3f3f"/>
                </g>
              </g>
            </g>
          </g>
        </g>
      </g>
      <g id="Group_21461" data-name="Group 21461" transform="translate(29.969 127.276)">
        <g id="Group_21460" data-name="Group 21460">
          <g id="Group_21459" data-name="Group 21459">
            <g id="Group_21458" data-name="Group 21458">
              <g id="Group_21457" data-name="Group 21457">
                <g id="Group_21456" data-name="Group 21456">
                  <path id="Path_28243" data-name="Path 28243" d="M.88,8.884c.077-.306.152-.632.21-.969s.119-.69.168-1.048.076-.727.108-1.093c.01-.369.034-.737.03-1.1s-.008-.723-.043-1.067a9.272,9.272,0,0,0-.115-.991,8.808,8.808,0,0,0-.171-.877C1,1.467.927,1.225.865,1.008S.718.613.661.464C.54.167.464,0,.464,0S.478.186.515.5c.016.157.047.345.068.566s.029.468.056.733.015.561.037.866,0,.63.012.964-.026.68-.022,1.03S.628,5.369.613,5.724s-.049.713-.08,1.063-.054.7-.1,1.032-.071.656-.1.964-.071.6-.1.867C.091,10.731,0,11.454,0,11.454A11.307,11.307,0,0,0,.649,9.738C.725,9.475.812,9.19.88,8.884Z" fill="#3f3f3f"/>
                </g>
              </g>
            </g>
          </g>
        </g>
      </g>
      <g id="Group_21467" data-name="Group 21467" transform="translate(15.668 36.068)">
        <g id="Group_21466" data-name="Group 21466">
          <g id="Group_21465" data-name="Group 21465">
            <g id="Group_21464" data-name="Group 21464">
              <g id="Group_21463" data-name="Group 21463">
                <g id="Group_21462" data-name="Group 21462">
                  <path id="Path_28244" data-name="Path 28244" d="M.992,60.838C.909,62.966.833,64.974.76,66.83c-.031.926-.1,1.814-.132,2.662S.551,71.139.5,71.891C.413,73.4.336,74.712.26,75.792S.127,77.724.076,78.3,0,79.189,0,79.189l.156-.877c.1-.573.245-1.415.4-2.489q.116-.807.255-1.78c.081-.649.169-1.352.263-2.1.186-1.5.371-3.2.547-5.052Q1.748,65.5,1.884,64c.093-1,.15-2.035.229-3.1.164-2.128.285-4.372.4-6.7.069-1.163.094-2.345.143-3.541s.094-2.41.117-3.63c.031-2.442.1-4.923.1-7.409-.005-1.239-.012-2.481-.018-3.716s-.011-2.468-.042-3.687-.048-2.434-.081-3.631-.056-2.38-.111-3.542c-.087-2.323-.2-4.568-.3-6.7-.117-2.13-.265-4.141-.392-6-.066-.926-.128-1.817-.187-2.663s-.146-1.644-.211-2.4c-.144-1.5-.269-2.818-.371-3.895C.932,1.233.8,0,.8,0s.02,1.24.052,3.411C.881,4.5.913,5.812.949,7.32s.071,3.215.109,5.071.085,3.869.132,6c.026,2.128.047,4.371.1,6.69s.02,4.72.063,7.157,0,4.91.01,7.384S1.327,44.567,1.313,47c-.056,2.437-.066,4.834-.127,7.152C1.108,56.472,1.08,58.715.992,60.838Z" fill="#3f3f3f"/>
                </g>
              </g>
            </g>
          </g>
        </g>
      </g>
    </g>
    <g id="Vector5" transform="translate(1163.159 1354.873)" opacity="0.05">
      <path id="Path_28377" data-name="Path 28377" d="M132.373,15.6c.117.093.24.184.359.286.235.2.473.413.7.642a8.73,8.73,0,0,1,.633.738,9.039,9.039,0,0,1,.535.82c.076.143.16.284.231.427s.14.288.207.429a9,9,0,0,1,.338.836,7.7,7.7,0,0,1,.239.777,7.222,7.222,0,0,1,.258,1.681,2.982,2.982,0,0,0,.093-.472,5.744,5.744,0,0,0,.013-1.274,7.8,7.8,0,0,0-.132-.845,8.158,8.158,0,0,0-.667-1.868,6.224,6.224,0,0,0-.547-.925,6.054,6.054,0,0,0-.7-.825,6.436,6.436,0,0,0-.8-.662c-.137-.1-.276-.185-.409-.274s-.274-.16-.408-.234-.267-.134-.394-.2-.257-.113-.377-.167c-.243-.1-.467-.187-.671-.251s-.378-.123-.528-.157c-.3-.077-.467-.112-.467-.112s.146.1.407.254l.463.284c.176.11.376.234.592.372.106.07.215.147.331.217l.347.239C132.134,15.424,132.249,15.515,132.373,15.6Z" transform="translate(-118.542 -11.93)" fill="#3f3f3f"/>
      <path id="Path_28378" data-name="Path 28378" d="M159.4,90.834c.049.131.1.278.168.434s.112.337.179.519.115.383.183.582.108.418.174.628.1.436.16.654.1.441.145.659.094.433.127.643.076.412.112.6.066.376.1.545c.115.68.192,1.135.192,1.135a7.112,7.112,0,0,0,.081-1.158c0-.173,0-.362-.014-.561s-.023-.409-.05-.625-.052-.439-.089-.666-.086-.454-.133-.682-.112-.454-.181-.672-.136-.437-.22-.639a6.046,6.046,0,0,0-.25-.58c-.091-.18-.169-.353-.263-.5s-.177-.286-.255-.406-.161-.213-.222-.293c-.128-.159-.2-.245-.2-.245s.043.11.122.295C159.3,90.6,159.35,90.7,159.4,90.834Z" transform="translate(-119.912 -15.5)" fill="#3f3f3f"/>
      <path id="Path_28379" data-name="Path 28379" d="M161.709,72.8c-.348-.148-.746-.34-1.165-.552-.429-.187-.88-.4-1.321-.631-.458-.2-.909-.408-1.327-.621-.43-.189-.83-.376-1.166-.55-.354-.148-.645-.283-.847-.38l-.334-.135.232.276c.158.163.387.394.674.661.3.248.662.52,1.059.805.414.255.865.512,1.325.755.479.2.965.388,1.424.546.472.126.913.233,1.294.308.388.052.712.082.938.1l.361,0-.316-.173C162.337,73.118,162.048,72.979,161.709,72.8Z" transform="translate(-119.744 -14.55)" fill="#3f3f3f"/>
      <path id="Path_28380" data-name="Path 28380" d="M176.663,70.638l1.763.084,1.764.013c.582.011,1.155-.028,1.709-.04,1.109-.044,2.143-.122,3.028-.228a25.3,25.3,0,0,0,2.942-.475s-1.183-.232-2.946-.406c-.883-.093-1.91-.179-3.01-.242-.55-.027-1.119-.078-1.7-.091l-1.75-.066-1.752-.029c-.578-.016-1.147,0-1.7,0s-1.084.017-1.59.027-.986.031-1.429.052c-1.77.077-2.964.243-2.964.243a25.69,25.69,0,0,0,2.913.632c.439.075.915.153,1.42.212s1.038.136,1.591.181S176.082,70.616,176.663,70.638Z" transform="translate(-120.375 -14.514)" fill="#3f3f3f"/>
      <path id="Path_28381" data-name="Path 28381" d="M188.5,72.2c-.74.007-1.6.006-2.528,0-.923.028-1.906.05-2.891.065-.982.057-1.965.109-2.887.15-.921.073-1.782.138-2.521.187l-1.786.187-.679.094.678.1,1.79.188c.743.044,1.608.085,2.536.125.927,0,1.917,0,2.907-.014.988-.06,1.976-.128,2.9-.2.924-.109,1.783-.214,2.519-.311l1.772-.32.668-.153-.683-.045Z" transform="translate(-120.664 -14.657)" fill="#3f3f3f"/>
      <path id="Path_28382" data-name="Path 28382" d="M201.772,53.923c-2-.7-9.254.016-10.837.888-.413.228-.51.453-.43.682-3.741.144-9.056.314-13.292.314-1.729,0-3.152-.028-4.228-.084-5.422-.282-9.97-2.112-13.153-5.3-.664-.664-1.342-1.461-2.06-2.307-2.68-3.151-6.016-7.075-12.1-8.215-1.649-.309-3.176-.57-4.523-.8-.771-.132-1.5-.257-2.184-.379-.566-1.952-1.044-3.6-1.395-4.815q-.136-.47-.272-.926c-.908-3.06-1.623-5.476-.31-9.334a8.813,8.813,0,0,0-1.363-7.625,10.282,10.282,0,0,0-8.577-4.182l-1.136-.011,4.049,6.034a4.2,4.2,0,0,1-1.464,4.161,6.628,6.628,0,0,1-4.612,1.208l-4.33-5.625-.48.5c-.108.113-2.6,2.82.331,8.5a8.036,8.036,0,0,0,4.3,3.907,7.559,7.559,0,0,1,4.491,4.8,5.016,5.016,0,0,0-3.588,2.671,5.439,5.439,0,0,0,.111,5.2,5.162,5.162,0,0,0-3.807,2.573,9.888,9.888,0,0,0-.153,8.112,7.4,7.4,0,0,0,3.149,3.45,10.34,10.34,0,0,0,.223,4.97,7.927,7.927,0,0,0,3,3.991,7.282,7.282,0,0,0,.564,4.138,9.519,9.519,0,0,0,2.768,3.6c.225,1.9,1.007,5.4,3.716,7.356,2.391,1.729,5.115,1.967,7.7,1.967l.285,0a6.2,6.2,0,0,1-.546,3.841c-1.133,2.1-2.551,6.2.7,10.113,3.137,3.786,5.613,5.072,8.28,4.3l.775-.224-4.064-6.258c-.078-.361-.322-2.177,2.273-3.63a6.756,6.756,0,0,1,5.324-.764l4.35,6.428.51-.575c.083-.091,2-2.339.241-8.436-.9-3.127-2.916-4.183-4.864-5.2-.279-.146-.556-.292-.829-.442,1.194-.143,2.234-.289,3.167-.42a35.223,35.223,0,0,1,4.937-.479c.285,0,.563.007.848.021.555.028,1.261.039,2.363.039q.816,0,1.8-.006,1.168-.006,2.561-.008a183.943,183.943,0,0,1,21.1,1.107c.25.712,1.657,1.554,5.085,1.921a20.246,20.246,0,0,0,7.152-.3,5.592,5.592,0,0,0,2.722-1.72,5.707,5.707,0,0,0,.951-2.057c1.94-6.413,1.682-12.053.964-19.338C207.656,58.08,207.271,55.862,201.772,53.923Zm-7.291,18.613c-.134,2.381.01,4.718-.845,6.689l-12.325-.291,4.266.961c-6.22-.49-11.569-.563-15.582-.563-1.708,0-3.174.013-4.364.013-.921,0-1.678-.009-2.249-.037-.328-.015-.647-.023-.962-.023a40.468,40.468,0,0,0-5.725.567c1.246-.451,2.444-.945,3.343-1.357.982-.447,1.616-.777,1.616-.777s-.688.2-1.729.444-2.436.521-3.838.722c-.973.142-1.944.248-2.8.322a13.421,13.421,0,0,0,.572-6.427c-.208-1.293-1.581-2.7-1.717-4.011-.154-1.5.237-2.786.039-4.319.289.254.581.505.882.746a24.062,24.062,0,0,0,2.465,1.69,21.423,21.423,0,0,0,2.3,1.171l.495.214.455.173c.283.11.532.2.742.265l.65.211-.607-.312c-.194-.1-.423-.225-.683-.377l-.415-.24-.448-.285a20.88,20.88,0,0,1-2.025-1.481,20.626,20.626,0,0,1-3.813-4.169,20.266,20.266,0,0,1-1.25-2.082l-.234-.45-.192-.414c-.015-.034-.028-.062-.043-.094a8.466,8.466,0,0,0-2.206-6.093,10.894,10.894,0,0,0-2.519-1.9c.443-.11.875-.234,1.278-.367.5-.173.961-.345,1.343-.518.193-.081.366-.163.519-.238s.285-.136.392-.194l.336-.177-.37.084c-.117.028-.261.055-.425.086s-.349.065-.552.093c-.4.066-.879.112-1.383.146s-1.043.032-1.575.012-1.059-.077-1.547-.149-.934-.16-1.312-.256c-.152-.034-.288-.071-.416-.107-.289-.13-.614-.255-.971-.376a13.623,13.623,0,0,0-1.437-.362c-.41-.083-.835-.171-1.267-.27a8.4,8.4,0,0,0,.585-.649c.275-.341.431-.58.431-.58s-.256.133-.647.29a8.165,8.165,0,0,1-1.447.428c-.187.036-.372.063-.551.085-.116-.034-.232-.067-.348-.1-.559-.174-1.116-.361-1.689-.569-.137-.051-.293-.1-.418-.152l-.412-.161c-.275-.106-.549-.211-.813-.331-.535-.225-1.048-.472-1.538-.719l-.711-.38-.663-.389-.61-.39-.553-.385c-.346-.255-.654-.5-.914-.72s-.478-.425-.644-.595c-.087-.086-.16-.163-.221-.23-.743-1.18-1.232-2.581-.563-3.786a2.667,2.667,0,0,1,2.409-1.557,5.492,5.492,0,0,1,3.387,1.557,3.76,3.76,0,0,0,1.031.627c-.038.051-.079.1-.12.151a.836.836,0,0,1-.156.158.333.333,0,0,1-.294,0,2.422,2.422,0,0,1-.5-.274,9.366,9.366,0,0,0-1.2-.645,11,11,0,0,0-2.541-.781A10.779,10.779,0,0,1,130.9,39.6a8.666,8.666,0,0,1,.961.821,3.37,3.37,0,0,0,.562.482,1.459,1.459,0,0,0,.966.238,1.413,1.413,0,0,0,.427-.129,1.962,1.962,0,0,0,.328-.2,3.593,3.593,0,0,0,.482-.421c.059-.062.116-.131.173-.2,2.282.638,5.839,1.113,10.453,1.978a14.211,14.211,0,0,1,6.021,2.671,16.5,16.5,0,0,1,1.011,1.384,18.2,18.2,0,0,1,.983,1.724,18.48,18.48,0,0,1,.776,1.842,16.727,16.727,0,0,1,.495,1.684c.063.251.111.482.149.688s.075.386.1.537c.046.3.071.47.071.47s0-.173-.013-.476c0-.153-.013-.336-.03-.547s-.032-.45-.065-.708a17.493,17.493,0,0,0-.292-1.765,19.424,19.424,0,0,0-.565-1.985c-.1-.272-.2-.54-.309-.805,1.74,1.774,3.149,3.7,4.628,5.175a18.7,18.7,0,0,0,3.641,2.823c.082.093.173.2.275.33.121.146.255.313.394.5.287.372.592.828.907,1.332s.61,1.067.887,1.644.512,1.178.713,1.752.357,1.123.467,1.6c.061.238.107.458.146.655s.074.369.1.511l.073.448s.01-.165.025-.454c.01-.146.015-.321.017-.524s.008-.432,0-.682c0-.5-.048-1.087-.113-1.716s-.187-1.3-.334-1.963c-.031-.136-.066-.272-.1-.407.072.133.142.269.21.406a15.181,15.181,0,0,1,.777,1.884c.178.532.273.9.273.9s0-.377-.037-.945a15.76,15.76,0,0,0-.286-2.086c-.1-.461-.214-.92-.338-1.333a25.9,25.9,0,0,0,6.969,1.288c1.193.062,2.693.088,4.347.088,4.428,0,9.968-.182,13.734-.329l-5.127.727,6.9.387a13.533,13.533,0,0,0,1.023,1.971C195.851,64.435,194.692,68.826,194.482,72.536ZM123.166,53.319c-.043-.147-.1-.36-.152-.621a8.239,8.239,0,0,1-.153-1.979A8.582,8.582,0,0,1,123.2,48.7c.079-.274.161-.5.222-.653l.1-.245-.155.214c-.1.137-.235.336-.383.587a8.921,8.921,0,0,0-.712,1.5,7.3,7.3,0,0,1,.691-3.294c.653-1.258,2.515-1.547,4.071-1.55.3.2.632.41,1,.625l.648.356.7.353.753.341.234.1A19.757,19.757,0,0,1,132.01,49.9a10.72,10.72,0,0,1,.637,1.773,5.512,5.512,0,0,1,.182,1.818,3.173,3.173,0,0,1-.173.813c-.014.047-.053.138-.083.214l-.084.172a2.832,2.832,0,0,1-.209.337,2.576,2.576,0,0,1-1.175.9,4.594,4.594,0,0,1-1.488.289c-.179.008-.356.006-.533,0a1.437,1.437,0,0,1-.18-.272,2.4,2.4,0,0,1-.179-1.4,9.115,9.115,0,0,1,.79-2.263,7.243,7.243,0,0,0,.483-1.45,2.6,2.6,0,0,0,.023-.863,1.585,1.585,0,0,0-1.162-1.327,2.344,2.344,0,0,0-.839-.071,2.793,2.793,0,0,0-.777.19,3.125,3.125,0,0,0-.357.19,3.478,3.478,0,0,0-.3.241,6.118,6.118,0,0,0-1.372,2.212,7.432,7.432,0,0,0-.448,1.756,3.376,3.376,0,0,0-.024.506c0,.116.007.178.007.178l.009-.178a3.251,3.251,0,0,1,.066-.5,7.322,7.322,0,0,1,.584-1.68,5.82,5.82,0,0,1,1.454-1.97,2.56,2.56,0,0,1,.264-.178,2.342,2.342,0,0,1,.283-.121,2.242,2.242,0,0,1,.641-.1,1.739,1.739,0,0,1,.619.1,1.008,1.008,0,0,1,.448.328,1.282,1.282,0,0,1,.1,1.11,6.454,6.454,0,0,1-.536,1.227,9.846,9.846,0,0,0-1.074,2.452,3.867,3.867,0,0,0-.014,1.717,13.856,13.856,0,0,1-1.65-.41c-.262-.082-.464-.153-.6-.2-.063-.023-.108-.041-.138-.053a5.091,5.091,0,0,1-2-1.833l.026,0S123.209,53.466,123.166,53.319Zm15.247-.774-2.776-.29-1.192-2.939A17.616,17.616,0,0,1,138.413,52.545Zm-12.3,5.6a14.968,14.968,0,0,0,1.894.157,10.462,10.462,0,0,0,1.826-.12,6.394,6.394,0,0,0,2.045-.664,4.233,4.233,0,0,0,1.72-1.68,4.346,4.346,0,0,0,.257-.555c.035-.1.064-.175.1-.3.023-.085.043-.152.07-.271s.044-.209.059-.31c.209.029.444.057.71.088s.586.049.923.063.7.027,1.091.014a24.25,24.25,0,0,0,2.612-.175c.953-.107,1.981-.272,3.058-.435.54-.081,1.086-.155,1.639-.2a3.355,3.355,0,0,1,.793.01,2.157,2.157,0,0,1,.71.243,2.934,2.934,0,0,1,1.087,1.13,5.905,5.905,0,0,1,.609,1.6,9.242,9.242,0,0,1,.234,1.769c.008.154.009.292.01.447s0,.3-.015.434a2.486,2.486,0,0,1-.128.615l-1.614.52-1.009.326-.552.178-.258.083-.19.055a.371.371,0,0,1-.42-.121,3.425,3.425,0,0,1-.43-1,6.15,6.15,0,0,1-.3-2.36,3.716,3.716,0,0,1,.723-1.94,3.1,3.1,0,0,1,1.171-.967,1.771,1.771,0,0,1,.233-.1,1.234,1.234,0,0,1,.179-.056l.153-.04-.157.014a1.479,1.479,0,0,0-.189.027,1.923,1.923,0,0,0-.253.057,3.313,3.313,0,0,0-1.4.821,4.1,4.1,0,0,0-.695.877,4.517,4.517,0,0,0-.478,1.173,7.064,7.064,0,0,0-.1,2.735c.032.233.069.452.12.692a3.147,3.147,0,0,0,.267.772,1.907,1.907,0,0,0,.547.644c-.478.1-.956.185-1.428.262-.223.037-.439.07-.659.1l-.014-.027a11.237,11.237,0,0,1-.795-1.848,11.407,11.407,0,0,1-.458-2.007c-.076-.564-.091-.947-.091-.947l-.048.258c-.031.165-.07.4-.1.691a12,12,0,0,0-.056,2.147,12.3,12.3,0,0,0,.278,1.917l-1.439.2-3.051.43-5.5.775c-.062-.092-.132-.2-.208-.317a16.38,16.38,0,0,1-.914-1.639,17.238,17.238,0,0,1-1-2.594s0,.351.033.882a16.931,16.931,0,0,0,.233,1.947c.076.422.17.843.267,1.226a5.554,5.554,0,0,1-1.493-2.328A7.615,7.615,0,0,1,126.113,58.149Zm3.265,8.78,5.883-1.2,3.018-.617c1.077-.225,2.188-.436,3.387-.711a25.54,25.54,0,0,0,3.64-1.081,8.8,8.8,0,0,0,1.8-.938c.084.02.172.044.265.074a2.617,2.617,0,0,1,1.082.7,3.174,3.174,0,0,1,.74,1.465,5.813,5.813,0,0,1,.079,1.965,9.033,9.033,0,0,1-.277,1.449c-.316.143-.682.321-1.09.526-.569.282-1.229.629-1.9.915a4.774,4.774,0,0,1-.494.183.5.5,0,0,0-.08.029l-.057.019a.464.464,0,0,1-.127.02.364.364,0,0,1-.25-.1.6.6,0,0,1-.1-.109.956.956,0,0,1-.1-.187,6.049,6.049,0,0,1-.5-2.229,3.318,3.318,0,0,1,.54-1.907,2.782,2.782,0,0,1,1.089-.973,2.381,2.381,0,0,1,.4-.151l.147-.039-.152.013a2.454,2.454,0,0,0-.427.084,3,3,0,0,0-1.333.838,3.579,3.579,0,0,0-.621.9,4.342,4.342,0,0,0-.368,1.175,5.932,5.932,0,0,0-.065,1.313c.013.222.034.446.066.668s.066.434.126.678c.015.061.033.122.052.185s.051.144.081.216a2.036,2.036,0,0,0,.239.419,1.515,1.515,0,0,0,.611.485c-.71.149-1.433.267-2.147.362l-.217.029c-.2-.471-.53-1.293-.8-2.149a26.469,26.469,0,0,1-.7-2.688,26.7,26.7,0,0,0-.055,2.818c.024.826.107,1.653.172,2.2l-.835.11-4.322.569-2.51.33c-.3-.356-.744-.911-1.163-1.5-.717-.987-1.338-2.059-1.338-2.059s.262,1.21.653,2.4c.056.179.115.357.176.531a7.3,7.3,0,0,1-1.8-2.483A5.017,5.017,0,0,1,129.377,66.929Zm6.783,7.457,4.253-.96,2.4-.545c.834-.2,1.673-.418,2.51-.692a10.735,10.735,0,0,0,2.442-1.11,5.094,5.094,0,0,0,.871-.713l.18-.054a2.721,2.721,0,0,1,.736.114,3.309,3.309,0,0,1,1.048.531,3.733,3.733,0,0,1,.99,1.132,3.488,3.488,0,0,1,.456,1.669,3.831,3.831,0,0,1-.024.451c-.013.08-.027.186-.039.246-.017.082-.031.167-.051.248a4.337,4.337,0,0,1-.312.936,2.4,2.4,0,0,1-.489.684c-.277.092-.615.2-1,.321-.543.167-1.2.357-1.878.528a1.421,1.421,0,0,1-.814.028,1.126,1.126,0,0,1-.543-.629,4.067,4.067,0,0,1-.255-2.074,3.833,3.833,0,0,1,.687-1.754,3.418,3.418,0,0,1,1-.929,3.181,3.181,0,0,1,.348-.179l.129-.053-.134.038a3.1,3.1,0,0,0-.371.138,3.556,3.556,0,0,0-1.152.84,4.178,4.178,0,0,0-.967,1.809,4.643,4.643,0,0,0,.021,2.416,2.438,2.438,0,0,0,.283.623,1.611,1.611,0,0,0,.525.513c-.369.084-.739.163-1.1.238l-.942.187c-.219-.287-.687-.914-1.112-1.586-.587-.908-1.087-1.889-1.087-1.889s.131,1.091.377,2.181c.126.582.285,1.16.406,1.574-1.39.263-2.688.5-3.807.691-1.1.189-2.029.336-2.7.437a8.918,8.918,0,0,1-2.148-2.065c-.164-.218-.29-.409-.376-.544l-.134-.214.074.242c.049.153.122.375.227.633a9.75,9.75,0,0,0,.868,1.676l-.025-.017a7.421,7.421,0,0,1-2.537-4.4Zm.931-39.586c.362,1.18.75,2.454,1.154,3.793-.2-.036-.389-.072-.575-.11-.346-1.253-.673-2.452-.975-3.569-.367-1.338-.693-2.568-.981-3.658-.141-.546-.291-1.049-.389-1.536a7.723,7.723,0,0,1,.033-3.224c.091-.424.156-.645.156-.645s-.052.226-.12.654a8.642,8.642,0,0,0-.081,1.863,8.055,8.055,0,0,0,.2,1.307c.116.466.29.967.454,1.507C136.308,32.259,136.688,33.472,137.091,34.8Zm-12.86-5.363a6.945,6.945,0,0,1-3.761-3.378c-1.776-3.437-1.345-5.53-.912-6.493l3.67,4.766.221.044a7.771,7.771,0,0,0,5.775-1.4,5.44,5.44,0,0,0,1.879-5.5l-.025-.1-2.865-4.267a8.844,8.844,0,0,1,6.441,3.606,8.608,8.608,0,0,1,.605,1c.048.109.1.235.157.378a7.827,7.827,0,0,1,.325,1.043,6.508,6.508,0,0,1,.174,1.369,5.513,5.513,0,0,1-.186,1.569,6.02,6.02,0,0,1-.695,1.59,7.211,7.211,0,0,1-.534.756c-.1.12-.2.242-.3.364s-.224.232-.336.351a13.456,13.456,0,0,1-1.518,1.284,19.092,19.092,0,0,1-1.7,1.091,9.854,9.854,0,0,1-1.724.793,6.34,6.34,0,0,1-1.7.335,6.69,6.69,0,0,1-1.582-.109,10.9,10.9,0,0,1-1.353-.344c-.2-.065-.389-.132-.561-.2s-.336-.121-.48-.18l-.907-.371s.066.061.191.173.314.275.566.466a8.82,8.82,0,0,0,.947.644,8,8,0,0,0,1.362.662,6.384,6.384,0,0,0,3.886.188,8.991,8.991,0,0,0,1.58-.586q1.82,4.5,3.372,8.575a1.3,1.3,0,0,1-.274-.16c-.125-.114-.289-.256-.483-.411L133,35.779c-.528-1.27-.83-1.993-.83-1.993s.237.747.651,2.058c.085.259.179.547.277.85a7.407,7.407,0,0,0-3.641-1.436C127.991,31.261,126,30.3,124.231,29.437Zm31.744,55.812c.375.163.705.307.975.433l.522.243a5.991,5.991,0,0,1,1.391,2.537c1.008,3.491.716,5.528.383,6.527l-3.555-5.255-.162-.07a7.773,7.773,0,0,0-6.527.767c-2.977,1.666-3.142,4.065-2.812,5.1l.024.077,3.239,4.985c-1.419.121-3.3-.561-6.211-4.071-2.659-3.208-1.775-6.547-.564-8.783a7.392,7.392,0,0,0,.694-4.434c1.073-.036,2.253-.1,3.573-.192.028.353.048.66.062.922-.04.017-.078.033-.118.049a5.766,5.766,0,0,0-.527.262,5.09,5.09,0,0,0-.933.682,6.706,6.706,0,0,0-1.32,1.707,9.8,9.8,0,0,0-.755,1.787,13.114,13.114,0,0,0-.553,3.067c-.032.419-.034.788-.03,1.089a8.31,8.31,0,0,0,.057.947s.082-.336.236-.909c.079-.287.18-.634.3-1.027s.264-.828.432-1.3.364-.967.6-1.475a11.125,11.125,0,0,1,.83-1.513,6.235,6.235,0,0,1,1.141-1.324,4.4,4.4,0,0,1,.7-.491,3.839,3.839,0,0,1,.383-.184l.46-.194a16.162,16.162,0,0,1,1.813-.627,8.786,8.786,0,0,1,1.782-.3,7.731,7.731,0,0,1,1.686.1,10.755,10.755,0,0,1,1.516.388C155.17,84.924,155.6,85.089,155.975,85.249Zm41.662-17.641c-.066,1.408-.236,2.875-.37,4.346-.179,1.467-.358,2.934-.527,4.309-.087.687-.171,1.349-.289,1.988a11.282,11.282,0,0,1-.468,1.776,5.133,5.133,0,0,1-1.561,2.242,4.786,4.786,0,0,1-.628.427l-.232.132.206-.169a4.519,4.519,0,0,0,.539-.513,5.375,5.375,0,0,0,1.216-2.271,9.742,9.742,0,0,0,.3-1.715c.053-.629.111-1.292.169-1.979.132-1.38.273-2.851.413-4.322.173-1.468.381-2.935.48-4.294.045-.682.075-1.337.072-1.959a11.114,11.114,0,0,0-.142-1.741,9.416,9.416,0,0,0-.761-2.509,6.173,6.173,0,0,0-.342-.664c-.086-.152-.131-.233-.131-.233l.167.207a6.47,6.47,0,0,1,.453.607,8.2,8.2,0,0,1,1.091,2.494,13.441,13.441,0,0,1,.3,1.806A15.211,15.211,0,0,1,197.637,67.607Zm8.67,6.949c-.038.6-.111,1.2-.2,1.787a13.959,13.959,0,0,1-.392,1.7,12.5,12.5,0,0,1-.558,1.536,11.343,11.343,0,0,1-.67,1.3,10.452,10.452,0,0,1-1.291,1.742c-.171.2-.325.334-.422.433l-.153.149.439-.684a15.583,15.583,0,0,0,.988-1.868c.179-.4.343-.837.51-1.3s.3-.972.422-1.5.22-1.073.3-1.635c.029-.2.051-.4.074-.606-.114.24-.217.486-.352.718a9.067,9.067,0,0,1-.921,1.352c-.33.419-.692.787-1.032,1.146s-.682.685-1,1-.607.615-.861.9a8.489,8.489,0,0,0-1.107,1.488,3.958,3.958,0,0,0-.238.472l-.081.173.029-.188a3.141,3.141,0,0,1,.118-.528,6.363,6.363,0,0,1,.852-1.745,12.771,12.771,0,0,1,.764-1.041c.285-.354.588-.724.906-1.092s.628-.76.931-1.152a8.124,8.124,0,0,0,.809-1.243c.129-.213.228-.44.339-.662.093-.231.2-.454.275-.687a11.644,11.644,0,0,0,.419-1.388,16.261,16.261,0,0,0,.284-1.659c0-.131,0-.262-.007-.391-.028-1.1-.071-2.128-.084-3.016s-.01-1.628.01-2.147.045-.815.045-.815.047.294.127.805.193,1.24.314,2.117.26,1.9.349,3.015c.043.555.084,1.131.094,1.72S206.338,73.955,206.307,74.556Z" transform="translate(-117.985 -11.83)" fill="#3f3f3f"/>
    </g>
    <g id="Vector3" transform="translate(544.047 844.808)" opacity="0.05">
      <path id="Path_28399" data-name="Path 28399" d="M208.253,128.965a2.188,2.188,0,0,0-1.835-1.922l-1.911-7.495a2.188,2.188,0,0,0-2.12-1.647H179.522v-2.027a4.621,4.621,0,0,0-4.617-4.616H157.444a4.622,4.622,0,0,0-4.617,4.616V117.9H129.961a2.188,2.188,0,0,0-2.119,1.647l-1.911,7.495a2.188,2.188,0,0,0-1.836,1.922l-.911,8.264a2.185,2.185,0,0,0,.54,1.694l1.3,1.466,2.726,17.232a2.188,2.188,0,0,0,2.16,1.846h72.518a2.188,2.188,0,0,0,2.161-1.846l2.725-17.232,1.3-1.466a2.182,2.182,0,0,0,.541-1.694Zm-42.079-8.876h32.312l.7,3.636-69.452.383,69.6.384.715,3.718H127.89l2.071-8.12Zm-38.982,19.969h14.075v.6l-12.719.179,12.719.18v2.236a1.367,1.367,0,0,0,1.368,1.367h10.547c.971,0,.776-1.894.767-3.424l25.6.361v1.7a1.367,1.367,0,0,0,1.368,1.367h10.208c.893,0,.8-1.469.772-2.889l8.249.117-.294,2.933-70.121.387,70.043.387-.385,3.832-68.656.385,68.578.383-.326,3.248-68.252,1.017,55.044.82H129.592Zm76.768-10.482a18.837,18.837,0,0,1,.868,7.083l-13.746.116v-6.789a1.35,1.35,0,0,0-.07-.41Zm-23.042.41h1.588l.665,11.736.665-11.736h3l.665,11.736.664-11.736h1.55v13.263h-8.8Zm-1.368,8.7H152.8v-1.154l26.753.226Zm-35.347-8.7.665,11.736.664-11.736h3l.664,11.736.665-11.736h1.569v13.263h-8.8V129.986Zm8.595,10.505v-.433h26.753v.056Zm38.283-1.8v-.831l13.608.114c-.034.238-.071.476-.115.717Zm-11.531-8.7v6.886L152.8,137.1v-7.111a1.35,1.35,0,0,0-.07-.41H179.62A1.351,1.351,0,0,0,179.551,129.986Zm-53.323-.41h15.109a1.322,1.322,0,0,0-.07.41v7.208l-14.542.123,14.542.123v1.251H126.446l-1.088-1.222Zm27.723-14.837a3.609,3.609,0,0,1,.693-1.538,2.946,2.946,0,0,1,.785-.674,2.976,2.976,0,0,1,1.042-.368,3.726,3.726,0,0,1,.559-.051l.476-.012,1-.026c.681-.012,1.386-.021,2.1-.017l2.173.018,4.275.052,3.731.065,3.64.092-3.632.263-3.723.241-4.268.254-2.169.12c-.716.037-1.419.063-2.1.083l-1,.021-.5.011a2.619,2.619,0,0,0-.388.024,2.021,2.021,0,0,0-1.2.606,3.419,3.419,0,0,0-.676,1.082c-.156.377-.232.739-.327,1.035s-.171.538-.24.706a2.166,2.166,0,0,1-.112.26,2.24,2.24,0,0,1-.106-.263,3.116,3.116,0,0,1-.146-.768A4.506,4.506,0,0,1,153.951,114.739Zm2.562,1.134a.932.932,0,0,1,.93-.93h17.462a.932.932,0,0,1,.93.93V117.9H156.513Z" transform="translate(-123.171 -111.257)" fill="#3f3f3f"/>
    </g>
    <g id="Vector1" transform="translate(276.104 1334.007) rotate(90)" opacity="0.1">
      <path id="Path_28256" data-name="Path 28256" d="M36.885,51.666a3.956,3.956,0,0,0-2.222-6.836,3.2,3.2,0,0,0-.6.058c-.895.174-2.507.528-3.806.817-.062-.432-.126-.879-.187-1.281a1.4,1.4,0,0,0,.2-.877L29.806,38.9l-.59-5.795a1.405,1.405,0,0,0,.361-.926V21.255a1.457,1.457,0,0,0-.062-.415L23.434,1a1.418,1.418,0,0,0-1.355-1h-2.3A1.4,1.4,0,0,0,19.1.181,1.4,1.4,0,0,0,18.417,0h-2.3a1.416,1.416,0,0,0-1.354,1L8.679,20.84a1.4,1.4,0,0,0-.062.415V32.178a1.405,1.405,0,0,0,.361.926L7.915,43.547a1.4,1.4,0,0,0,.2.876c-.06.4-.125.849-.186,1.282-1.3-.289-2.911-.643-3.806-.817a3.2,3.2,0,0,0-.6-.058,3.59,3.59,0,0,0-3.31,2.734,3.556,3.556,0,0,0,1.087,4.1C2.73,52.659,6.5,55.3,2.539,68.914c-4.9,16.849.58,38.9.636,39.116C4.438,113.015,6,116.1,9.85,116.1c2.644,0,5.794-1.25,5.794-7.2,0-3.721-.919-5.515-1.71-6.369-3.425-12.623.422-38.4,3.8-44.2A13.316,13.316,0,0,0,19.1,55.052a13.316,13.316,0,0,0,1.358,3.274c3.381,5.808,7.228,31.581,3.8,44.2-.79.854-1.71,2.648-1.71,6.369,0,5.954,3.151,7.2,5.794,7.2,3.854,0,5.411-3.089,6.676-8.073.055-.22,5.538-22.267.634-39.116C31.691,55.3,35.464,52.659,36.885,51.666ZM20.407,20.972a4.223,4.223,0,0,0-.2-.8,3.741,3.741,0,0,0-.317-.757,3.758,3.758,0,0,1,.5.677,4.4,4.4,0,0,1,.323.811,4.349,4.349,0,0,1,.124,1,4.375,4.375,0,0,1-.16,1,4.426,4.426,0,0,1-.352.8,3.73,3.73,0,0,1-.523.657,3.743,3.743,0,0,0,.344-.745,4.26,4.26,0,0,0,.234-.788,4.111,4.111,0,0,0,.1-.925A4.068,4.068,0,0,0,20.407,20.972ZM19.059,10.917c.016-.007.026-.018.041-.025.023.01.04.029.064.038s1.35.757,1.35,3.092A4.552,4.552,0,0,1,19.1,17.5a4.557,4.557,0,0,1-1.416-3.479C17.679,11.688,19,10.948,19.059,10.917Zm8,11.146-.263,7.819a5.632,5.632,0,0,0-.511-.744,9.109,9.109,0,0,0-.936-1.041,9.412,9.412,0,0,0-1.1-.864,3.711,3.711,0,0,0-.586-.357c-.2-.1-.393-.219-.595-.306a7.856,7.856,0,0,0-1.189-.425c-.195-.05-.379-.11-.564-.146l-.538-.078a5.137,5.137,0,0,0-.948-.061h-.047v-.645a4.165,4.165,0,0,0,1.754-3.39,3.459,3.459,0,0,0-1.683-3.1,5.9,5.9,0,0,0,2.085-4.7c0-3.336-2.155-4.369-2.155-4.369V1.418h2.3l4.463,14.557-4.8-13.626ZM18.363,9.684c-.323.179-2.1,1.306-2.1,4.339a5.9,5.9,0,0,0,2.084,4.7,3.46,3.46,0,0,0-1.683,3.1,4.16,4.16,0,0,0,1.695,3.347v.805c.059,0,.12-.006.181-.008.089.01.281.032.564.057a4.012,4.012,0,0,1,.7.1,8.008,8.008,0,0,1,.884.2,7.866,7.866,0,0,1,1.016.327,10.689,10.689,0,0,1,1.078.484,9.918,9.918,0,0,1,1.068.668,9.332,9.332,0,0,1,1.891,1.766,10.593,10.593,0,0,1,.739,1.019,11.723,11.723,0,0,1,.562,1.041,8.754,8.754,0,0,1,.4.99,6.926,6.926,0,0,1,.259.872,4.29,4.29,0,0,1,.145.692c.058.39.1.616.1.616l.006-.078.44,4.327.473,4.649-7.793,1.417V43.415c-.079.018-.157.039-.235.055a7.534,7.534,0,0,1-.755.035c-.253,0-.561-.011-.907-.043a7.757,7.757,0,0,1-1.142-.216,13.151,13.151,0,0,1-1.313-.392l-.686-.279c-.224-.119-.458-.225-.692-.341l-.68-.407-.658-.469c-.2-.178-.419-.347-.621-.532s-.393-.383-.569-.595a8.12,8.12,0,0,1-.969-1.318,7.3,7.3,0,0,1-.382-.708,5.084,5.084,0,0,1-.313-.724,5.889,5.889,0,0,1-.239-.727,5.019,5.019,0,0,1-.177-.707,12.526,12.526,0,0,1-.189-1.359,10.6,10.6,0,0,1,.074-2.076c.05-.366.1-.614.119-.726.05-.145.1-.291.158-.433l-.867.393V21.255L16.115,1.418h2.244V9.653C18.359,9.664,18.362,9.673,18.363,9.684ZM10.034,36.721c.013.078.016.155.032.233a4.8,4.8,0,0,0,.2.825,5.842,5.842,0,0,0,.3.83,5.342,5.342,0,0,0,.395.815,8.98,8.98,0,0,0,1.063,1.512c.2.236.438.439.655.658s.476.391.712.584c.251.171.5.339.757.492l.782.4c.267.108.527.22.785.316l.776.224c.215.049.422.09.628.129v1.366L9.326,43.691Zm8.5,7.167a5.365,5.365,0,0,0,.64-.018c.173-.014.333-.037.481-.062v1.17c-.189.56-.387,1.226-.56,1.976-.174-.75-.371-1.416-.561-1.976ZM5,107.569c-1.41-5.559-4.725-24.141-.653-38.13S4.751,51.78,2.385,50.126c-.753-.527-.6-2.018.079-2.845l13.725,2.194L9.595,47.383c.075-.547.193-1.379.3-2.147L16.312,46.4a10.336,10.336,0,0,1-.2,6.474c-.769,2.378-2.046,4.553-3.04,6.846-.2.473-.395.953-.576,1.435-.122-.171-.238-.344-.367-.51A16.431,16.431,0,0,0,9.015,57.6a13.373,13.373,0,0,0-1.174-.795l-.458-.275.4.349a13.149,13.149,0,0,1,1.007.969,15.79,15.79,0,0,1,2.442,3.378,15.7,15.7,0,0,1,.7,1.523,74.494,74.494,0,0,0-2.643,14.81c-.183,1.678-.363,3.371-.517,5.069l-5.392.809,5.258.789C8.12,90.8,8.13,97.413,10.1,103.559a14.085,14.085,0,0,0-1.4,2.279,13.61,13.61,0,0,0-.96,2.655,12.26,12.26,0,0,0-.245,1.237,12,12,0,0,1,.554-1.115,12.441,12.441,0,0,1,2.664-3.321c.1.243.179.488.28.728.713,1.7,1.612,3.438,1.445,5.274a3.694,3.694,0,0,1-2.02,2.9c-.186.016-.374.026-.564.026C7.815,114.225,6.406,113.128,5,107.569Zm19.431,1.33c0-4.541,1.487-5.323,1.487-5.323,3.915-13.232-.235-40.01-3.836-46.195-2.266-3.892-1.677-8.2-.929-10.864a1.339,1.339,0,0,0,.178-.016l6.966-1.266c.106.732.218,1.521.293,2.067l-6.844,2.173L34.58,47.423a13.523,13.523,0,0,1-1.712,3.8,17.127,17.127,0,0,0-1.559,4.319,20.843,20.843,0,0,1-1.73,2.252,23.531,23.531,0,0,1-3.341,3.112,23.769,23.769,0,0,0,4.051-2.322q.319-.222.624-.457a29.025,29.025,0,0,0-.014,5.287c.355,4.158,1.39,8.225,2.1,12.338q.6,3.473.868,6.989l-6.156.815,6.27.83a74.325,74.325,0,0,1-2.422,23.754c-.093.341-.192.684-.3,1.024-.163-.5-.349-1.019-.568-1.523a16.828,16.828,0,0,0-1.736-3.065,15.094,15.094,0,0,0-.977-1.239,15.238,15.238,0,0,1,.689,1.4,16.137,16.137,0,0,1,1.012,3.222,15.777,15.777,0,0,1,.3,3.289c0,.266-.014.5-.026.7a5.548,5.548,0,0,1-.6.708,4.205,4.205,0,0,1-2.9,1.2C25.281,113.308,24.428,111.958,24.428,108.9Z" fill="#3f3f3f"/>
      <path id="Path_28257" data-name="Path 28257" d="M7.866,1.079A4.2,4.2,0,0,0,6.638.336,4.862,4.862,0,0,0,5.583.042,4.142,4.142,0,0,0,4.885,0L4.639.009l.244.029a5.855,5.855,0,0,1,.674.125A4.726,4.726,0,0,1,7.624,1.345,4.454,4.454,0,0,1,8.97,4.292a4.177,4.177,0,0,1,0,.447,3.776,3.776,0,0,1-.045.475A4.454,4.454,0,0,1,7.687,7.687a4.466,4.466,0,0,1-6.341-.063A4.7,4.7,0,0,1,.164,5.557a5.678,5.678,0,0,1-.125-.674l-.03-.244,0,.246a4.193,4.193,0,0,0,.038.7A4.905,4.905,0,0,0,.335,6.639a4.153,4.153,0,0,0,.744,1.227A4.749,4.749,0,0,0,4.256,9.533a4.8,4.8,0,0,0,2.057-.25A5.009,5.009,0,0,0,8.14,8.14,5.02,5.02,0,0,0,9.283,6.313a4.373,4.373,0,0,0,.239-1.045,4.275,4.275,0,0,0,.031-.5,4.53,4.53,0,0,0-.022-.519A4.767,4.767,0,0,0,7.866,1.079Z" transform="translate(14.458 30.154)" fill="#3f3f3f"/>
      <path id="Path_28258" data-name="Path 28258" d="M4.374,4.683C3.86,6.253,3.333,7.818,2.847,9.4Q1.365,14.122.014,18.885L0,18.931v.04c0,1.624.041,3.249.059,4.874S.138,27.1.21,28.721C.316,27.1.4,25.474.464,23.851c.052-1.608.129-3.216.161-4.824q1.489-4.7,2.837-9.448C3.923,7.995,4.342,6.4,4.776,4.8q.33-1.192.626-2.4C5.6,1.607,5.81.806,6,0c-.287.776-.556,1.556-.828,2.337S4.627,3.9,4.374,4.683Z" transform="translate(10.455 2.349)" fill="#3f3f3f"/>
    </g>
  </g>
</svg>
