<svg xmlns="http://www.w3.org/2000/svg" width="16.492" height="16.492" viewBox="0 0 16.492 16.492">
  <path id="Icon_awesome-check-circle" data-name="Icon awesome-check-circle" d="M17.055,8.809A8.246,8.246,0,1,1,8.809.563,8.246,8.246,0,0,1,17.055,8.809Zm-9.2,4.366,6.118-6.118a.532.532,0,0,0,0-.752l-.752-.752a.532.532,0,0,0-.752,0l-4.99,4.99-2.33-2.33a.532.532,0,0,0-.752,0l-.752.752a.532.532,0,0,0,0,.752L7.1,13.175a.532.532,0,0,0,.752,0Z" transform="translate(-0.563 -0.563)" fill="#003f9a"/>
</svg>
