<svg xmlns="http://www.w3.org/2000/svg" width="18.489" height="18.489" viewBox="0 0 18.489 18.489">
  <g id="icon_cancel" transform="translate(0 -0.001)">
    <path id="Path_28402" data-name="Path 28402" d="M221.84,74.737l-5.807,5.807,5.807,5.808-.766.766-9.824-6.574,9.824-6.573Z" transform="translate(-203.621 -71.299)" fill="#e0230d"/>
    <path id="Path_28403" data-name="Path 28403" d="M24.682,9.9l-6.574,6.573,6.574,6.574-2.4,2.4-5.807-5.807-5.807,5.807L7.5,22.282l5.807-5.807L7.5,10.667,10.666,7.5l5.807,5.807L22.281,7.5Z" transform="translate(-7.229 -7.229)" fill="#ff5440"/>
    <path id="Path_28404" data-name="Path 28404" d="M12.794,9.246,18.41,3.63a.271.271,0,0,0,0-.383L15.244.08a.271.271,0,0,0-.383,0L9.245,5.7,3.629.08a.271.271,0,0,0-.383,0L.079,3.247a.271.271,0,0,0,0,.383L5.7,9.246,3.366,11.575a.271.271,0,0,0,.383.383L6.27,9.437a.271.271,0,0,0,0-.383L.654,3.438,3.437.655,9.053,6.271a.271.271,0,0,0,.383,0L15.052.655l2.783,2.783L12.219,9.054a.271.271,0,0,0,0,.383l5.616,5.616-2.783,2.783L9.436,12.22a.271.271,0,0,0-.383,0L3.437,17.836.654,15.053l3.607-3.579a.271.271,0,1,0-.383-.383l-3.8,3.771a.271.271,0,0,0,0,.383l3.166,3.166a.271.271,0,0,0,.383,0l5.616-5.616,5.616,5.616a.271.271,0,0,0,.383,0l3.166-3.166a.271.271,0,0,0,0-.383Z" transform="translate(0)"/>
  </g>
</svg>
