<svg xmlns="http://www.w3.org/2000/svg" width="8.594" height="11.28" viewBox="0 0 8.594 11.28">
  <path id="Icon_material-lock" data-name="Icon material-lock" d="M13.52,5.26h-.537V4.186a2.686,2.686,0,1,0-5.372,0V5.26H7.074A1.077,1.077,0,0,0,6,6.334v5.372A1.077,1.077,0,0,0,7.074,12.78H13.52a1.077,1.077,0,0,0,1.074-1.074V6.334A1.077,1.077,0,0,0,13.52,5.26ZM10.3,10.094A1.074,1.074,0,1,1,11.372,9.02,1.077,1.077,0,0,1,10.3,10.094ZM11.962,5.26H8.632V4.186a1.665,1.665,0,1,1,3.33,0Z" transform="translate(-6 -1.5)" fill="#aeaeae"/>
</svg>
