<svg xmlns="http://www.w3.org/2000/svg" width="19.094" height="19.094" viewBox="0 0 19.094 19.094">
  <path id="Icon_simple-instagram" data-name="Icon simple-instagram" d="M9.547,0C6.953,0,6.63.012,5.611.057A7.04,7.04,0,0,0,3.294.5,4.675,4.675,0,0,0,1.6,1.6,4.658,4.658,0,0,0,.5,3.294,7.019,7.019,0,0,0,.057,5.611C.01,6.63,0,6.953,0,9.547s.012,2.917.057,3.936A7.044,7.044,0,0,0,.5,15.8a4.682,4.682,0,0,0,1.1,1.691,4.669,4.669,0,0,0,1.691,1.1,7.048,7.048,0,0,0,2.318.444c1.018.048,1.342.057,3.936.057s2.917-.012,3.936-.057a7.065,7.065,0,0,0,2.318-.444A4.879,4.879,0,0,0,18.593,15.8a7.044,7.044,0,0,0,.444-2.318c.048-1.018.057-1.342.057-3.936s-.012-2.917-.057-3.936a7.06,7.06,0,0,0-.444-2.318,4.686,4.686,0,0,0-1.1-1.691A4.652,4.652,0,0,0,15.8.5,7.023,7.023,0,0,0,13.483.057C12.464.01,12.14,0,9.547,0Zm0,1.718c2.548,0,2.852.013,3.859.056a5.26,5.26,0,0,1,1.772.33,3.142,3.142,0,0,1,1.812,1.812,5.271,5.271,0,0,1,.329,1.772c.045,1.007.056,1.31.056,3.859s-.012,2.852-.059,3.859a5.373,5.373,0,0,1-.335,1.772,3.031,3.031,0,0,1-.715,1.1,2.978,2.978,0,0,1-1.1.713,5.31,5.31,0,0,1-1.778.329c-1.014.045-1.312.056-3.866.056s-2.853-.012-3.866-.059a5.413,5.413,0,0,1-1.779-.335,2.956,2.956,0,0,1-1.1-.715,2.9,2.9,0,0,1-.716-1.1,5.418,5.418,0,0,1-.334-1.778c-.036-1-.049-1.312-.049-3.854s.013-2.853.049-3.867A5.412,5.412,0,0,1,2.065,3.89a2.83,2.83,0,0,1,.716-1.1,2.824,2.824,0,0,1,1.1-.714,5.284,5.284,0,0,1,1.767-.335c1.014-.036,1.313-.048,3.866-.048l.036.024Zm0,2.926a4.9,4.9,0,1,0,4.9,4.9A4.9,4.9,0,0,0,9.547,4.645Zm0,8.085a3.182,3.182,0,1,1,3.182-3.182A3.181,3.181,0,0,1,9.547,12.729Zm6.242-8.278a1.146,1.146,0,1,1-1.146-1.145A1.146,1.146,0,0,1,15.789,4.451Z" fill="#fff"/>
</svg>
