<svg xmlns="http://www.w3.org/2000/svg" width="19.094" height="19.094" viewBox="0 0 19.094 19.094">
  <path id="Icon_awesome-linkedin" data-name="Icon awesome-linkedin" d="M17.73,2.25H1.36A1.37,1.37,0,0,0,0,3.627v16.34a1.37,1.37,0,0,0,1.36,1.377H17.73a1.373,1.373,0,0,0,1.364-1.377V3.627A1.373,1.373,0,0,0,17.73,2.25ZM5.771,18.616H2.941V9.5H5.775v9.112ZM4.356,8.259A1.641,1.641,0,1,1,6,6.619,1.642,1.642,0,0,1,4.356,8.259ZM16.379,18.616h-2.83V14.184c0-1.057-.021-2.417-1.47-2.417-1.475,0-1.7,1.151-1.7,2.34v4.509H7.548V9.5h2.715v1.245H10.3a2.981,2.981,0,0,1,2.681-1.47c2.864,0,3.4,1.888,3.4,4.343Z" transform="translate(0 -2.25)" fill="#fff"/>
</svg>
