<svg xmlns="http://www.w3.org/2000/svg" width="116" height="54.049" viewBox="0 0 116 54.049">
  <g id="Logo" transform="translate(-70 -21)">
    <g id="Group_21091" data-name="Group 21091" transform="translate(70 21)">
      <path id="Path_27619" data-name="Path 27619" d="M450.158,323.662s-4.546,2.3-4.8,2.312c.063.1.35,1.17.627,2.239a2.461,2.461,0,0,1-1.587,2.951l-.984.336a3.117,3.117,0,0,1-3.983-2.022l-.716-2.3a7.44,7.44,0,0,0,4.626-1.215c2.431-1.905.3-4.461.3-4.461.5-3.108-1.1-3.91-1.1-3.91l.1-1.253a9.827,9.827,0,0,0,3.534,1.679l.326-.727a7.889,7.889,0,0,1-5.464-4.762l-2.456.351.05,1.654c-.2,1.754-2.356,1.5-2.356,1.5l-1.5-4.093a.858.858,0,0,1,.258-.955l3.908-3.238a1.874,1.874,0,0,1,1.946-.273c2.563,1.122,8.887,3.9,8.767,3.9-.1,0,8.581-1.294,14.927-2.238v-7.455a5.644,5.644,0,0,0-1.848-4.176l-17.888-16.257a5.139,5.139,0,0,0-6.913,0l-17.888,16.257a5.644,5.644,0,0,0-1.848,4.176v26.635a5.644,5.644,0,0,0,5.644,5.644h35.1a5.644,5.644,0,0,0,5.644-5.644v-5.278Zm-8.734-39.043a2.366,2.366,0,1,1-2.366,2.366A2.366,2.366,0,0,1,441.424,284.619ZM427.9,299.5l.7-4.26,1.353-.3,1.6,4.712,4.665-1.053-1.3-4.962,1.328-.5,2.445,2.1,1.038,4.583-1.353,3.144.675,2.757-5.337,4.261-1.454-4.962-3.007-2.356Zm5.714,11.579.952,3.058-3.007.4S431.385,311.84,433.617,311.081Zm-.765,7.207-.589-1.844a.676.676,0,0,1,.54-.662l2.091-.428.877,1.842s3.4-.188,3.609-1.554a.7.7,0,0,1,.7-.7h.551a.852.852,0,0,1,.852.852v.511a1.1,1.1,0,0,1-.874,1.075l-6.868,1.43A.772.772,0,0,1,432.853,318.288Zm1.409,3.242a1.275,1.275,0,0,1,.9-1.711l5.6-1.3a1.327,1.327,0,0,1,1.561.88,1.436,1.436,0,0,1-1.141,1.865l-5.778.91A1.046,1.046,0,0,1,434.262,321.53Zm2.965,4.137s-1.6.054-1.955-2.205l6.487-.915a1.268,1.268,0,0,1,1.393.894,1.253,1.253,0,0,1-.7,1.506A10.436,10.436,0,0,1,437.226,325.667Z" transform="translate(-418.2 -279.919)" fill="#003f9a"/>
    </g>
    <text id="AIRE" transform="translate(156 59)" fill="#1e1e1e" font-size="27" font-family="Roboto-Bold, Roboto" font-weight="700"><tspan x="-29.228" y="0">AIRE</tspan></text>
  </g>
</svg>
