<svg xmlns="http://www.w3.org/2000/svg" width="23.509" height="19.094" viewBox="0 0 23.509 19.094">
  <path id="Icon_awesome-twitter" data-name="Icon awesome-twitter" d="M21.093,8.139c.015.209.015.418.015.627A13.615,13.615,0,0,1,7.4,22.474,13.616,13.616,0,0,1,0,20.312a9.967,9.967,0,0,0,1.164.06,9.649,9.649,0,0,0,5.982-2.059,4.827,4.827,0,0,1-4.5-3.341,6.076,6.076,0,0,0,.91.075,5.1,5.1,0,0,0,1.268-.164A4.819,4.819,0,0,1,.955,10.153v-.06a4.852,4.852,0,0,0,2.178.612A4.825,4.825,0,0,1,1.641,4.261,13.7,13.7,0,0,0,11.576,9.3a5.439,5.439,0,0,1-.119-1.1,4.823,4.823,0,0,1,8.339-3.3,9.486,9.486,0,0,0,3.058-1.164,4.805,4.805,0,0,1-2.118,2.655,9.659,9.659,0,0,0,2.775-.746,10.357,10.357,0,0,1-2.416,2.491Z" transform="translate(0 -3.381)" fill="#fff"/>
</svg>
