<svg id="clock" xmlns="http://www.w3.org/2000/svg" width="12.228" height="12.228" viewBox="0 0 12.228 12.228">
  <g id="Group_21610" data-name="Group 21610" transform="translate(5.641 2.837)">
    <g id="Group_21609" data-name="Group 21609">
      <path id="Path_28409" data-name="Path 28409" d="M238.821,123.136l-1.7-1.279v-2.6a.474.474,0,1,0-.947,0v2.842a.473.473,0,0,0,.189.379l1.894,1.421a.474.474,0,0,0,.568-.758Z" transform="translate(-236.169 -118.779)" fill="#69696b"/>
    </g>
  </g>
  <g id="Group_21612" data-name="Group 21612">
    <g id="Group_21611" data-name="Group 21611">
      <path id="Path_28410" data-name="Path 28410" d="M6.114,0a6.114,6.114,0,1,0,6.114,6.114A6.121,6.121,0,0,0,6.114,0Zm0,11.281a5.167,5.167,0,1,1,5.167-5.167A5.173,5.173,0,0,1,6.114,11.281Z" fill="#69696b"/>
    </g>
  </g>
</svg>
