<svg id="icon_maintenance" xmlns="http://www.w3.org/2000/svg" width="63.094" height="55.138" viewBox="0 0 63.094 55.138">
  <circle id="Ellipse_12" data-name="Ellipse 12" cx="27.569" cy="27.569" r="27.569" transform="translate(7.956)" fill="#ebf1f8"/>
  <path id="Icon_awesome-plug" data-name="Icon awesome-plug" d="M16.606,9.341V2.076a2.076,2.076,0,1,1,4.152,0V9.341Zm7.265,1.038H1.038A1.038,1.038,0,0,0,0,11.417v2.076A1.038,1.038,0,0,0,1.038,14.53H2.076v2.076a10.382,10.382,0,0,0,8.3,10.171v6.435H14.53V26.777a10.382,10.382,0,0,0,8.3-10.171V14.53h1.038a1.038,1.038,0,0,0,1.038-1.038V11.417A1.038,1.038,0,0,0,23.871,10.379ZM8.3,9.341V2.076a2.076,2.076,0,1,0-4.152,0V9.341Z" transform="translate(0 10.963)" fill="#2871cc"/>
</svg>
