<svg id="icon_diagnostics" xmlns="http://www.w3.org/2000/svg" width="64.217" height="55.138" viewBox="0 0 64.217 55.138">
  <circle id="Ellipse_12" data-name="Ellipse 12" cx="27.569" cy="27.569" r="27.569" transform="translate(9.078)" fill="#ebf1f8"/>
  <g id="settings_3_" data-name="settings (3)" transform="translate(0 13.031)">
    <path id="Path_27620" data-name="Path 27620" d="M139.2,13.878a2.4,2.4,0,0,1,2.782.438l.975-.974a6.864,6.864,0,0,0,9.049-7.581.625.625,0,0,0-1.059-.342L149.5,6.864A3.017,3.017,0,1,1,145.237,2.6l1.447-1.447a.625.625,0,0,0-.342-1.059A6.863,6.863,0,0,0,138.8,9.247l-2.114,2.114Z" transform="translate(-123.225 -0.001)" fill="#2871cc"/>
    <path id="Path_27621" data-name="Path 27621" d="M12.5,156.418l-2.507-2.507-8.766,8.766A2.919,2.919,0,1,0,5.355,166.8l7.557-7.557A2.4,2.4,0,0,1,12.5,156.418Z" transform="translate(-0.373 -138.712)" fill="#2871cc"/>
    <path id="Path_27622" data-name="Path 27622" d="M18.326,31.46a.918.918,0,0,0-1.3,0l-.523.523L7.183,22.662l.436-.436a.918.918,0,0,0-.1-1.388l-3.8-2.8a.918.918,0,0,0-1.194.09L.9,19.742a.918.918,0,0,0-.09,1.194l2.8,3.8a.918.918,0,0,0,1.388.1l.436-.436,9.322,9.322-.56.56a.918.918,0,0,0,0,1.3l8.6,8.6a2.919,2.919,0,0,0,4.128-4.128Z" transform="translate(-0.607 -16.095)" fill="#2871cc"/>
  </g>
</svg>
