<svg id="calendar" xmlns="http://www.w3.org/2000/svg" width="27.459" height="27.459" viewBox="0 0 27.459 27.459">
  <g id="Group_21616" data-name="Group 21616">
    <g id="Group_21615" data-name="Group 21615">
      <path id="Path_28411" data-name="Path 28411" d="M24.713,2.746H23.34V1.373a1.373,1.373,0,1,0-2.746,0V2.746H6.865V1.373A1.3,1.3,0,0,0,5.492,0,1.3,1.3,0,0,0,4.119,1.373V2.746H1.373A1.376,1.376,0,0,0,0,4.119V23.34a1.376,1.376,0,0,0,1.373,1.373H9.748a10.929,10.929,0,0,1,16.338-14V4.119A1.476,1.476,0,0,0,24.713,2.746Z" fill="#003f9a"/>
    </g>
  </g>
  <g id="Group_21618" data-name="Group 21618" transform="translate(10.984 10.984)">
    <g id="Group_21617" data-name="Group 21617">
      <path id="Path_28412" data-name="Path 28412" d="M213.038,204.8a8.238,8.238,0,1,0,8.238,8.238A8.262,8.262,0,0,0,213.038,204.8Zm2.746,9.611h-2.746a1.3,1.3,0,0,1-1.373-1.373v-4.119a1.373,1.373,0,1,1,2.746,0v2.746h1.373a1.373,1.373,0,1,1,0,2.746Z" transform="translate(-204.8 -204.8)" fill="#003f9a"/>
    </g>
  </g>
</svg>
