<svg id="Search" xmlns="http://www.w3.org/2000/svg" width="22.4" height="22.405" viewBox="0 0 22.4 22.405">
  <path id="Path_415" data-name="Path 415" d="M10.991,20.56a9.569,9.569,0,1,1,9.569-9.569,9.569,9.569,0,0,1-9.569,9.569Zm0-17.271a7.7,7.7,0,1,0,7.7,7.7,7.7,7.7,0,0,0-7.7-7.7Z" transform="translate(0.21 0.211)" fill="#fff"/>
  <path id="Path_416" data-name="Path 416" d="M11.2,5.135a.934.934,0,0,1-.933-.934V.934a.933.933,0,1,1,1.867,0V4.2a.934.934,0,0,1-.934.934Zm10.269,7H18.2a.933.933,0,1,1,0-1.867h3.267a.933.933,0,1,1,0,1.867ZM11.2,22.405a.934.934,0,0,1-.933-.934V18.2a.933.933,0,1,1,1.867,0v3.267a.934.934,0,0,1-.934.938Zm-7-10.269H.934a.933.933,0,1,1,0-1.867H4.2a.933.933,0,1,1,0,1.867Z" transform="translate(-0.001 -0.001)" fill="#fff"/>
</svg>
